<svg xmlns="http://www.w3.org/2000/svg" xmlns:xlink="http://www.w3.org/1999/xlink" viewBox="0 0 890.03 317.61"><defs><style>.b5c8d46c-225a-432e-a838-1ebacc911087{fill:none}.c48a5194-b3ad-4b99-a084-7535c1c21899{fill:#fff}.f28a7e3f-7081-46ce-a65a-b81b5ef498b7{clip-path:url(#6d2ab63d-2207-451f-9bac-c73ecc68b2fd)}.e431ef4e-0658-40e0-9b8e-02fc8fb27dff{fill:#8fb7e1}.\34 d1c82a2-85e7-435f-a2ec-c6dbe3af6775{fill:#0f4c92}.\32 3e505c1-7b7e-4ce7-83dc-f138b922322e{fill:#d0b5a8}.\35 fedb2bf-33a6-4af6-8abf-c50be807f09a{clip-path:url(#6665f5bf-6eb1-4e63-9fef-ad1bab27cc15)}.\30 4efd3f9-9577-419c-98e4-d8fb48a42f91{clip-path:url(#be54a45a-728a-475b-85bd-32b50f9fe499)}</style><clipPath id="6d2ab63d-2207-451f-9bac-c73ecc68b2fd"><rect class="b5c8d46c-225a-432e-a838-1ebacc911087" x="350.03" y="20" width="190" height="190"/></clipPath><clipPath id="6665f5bf-6eb1-4e63-9fef-ad1bab27cc15"><rect class="b5c8d46c-225a-432e-a838-1ebacc911087" x="20.22" y="20" width="190" height="190"/></clipPath><clipPath id="be54a45a-728a-475b-85bd-32b50f9fe499"><rect class="b5c8d46c-225a-432e-a838-1ebacc911087" x="679.72" y="20" width="190" height="190"/></clipPath></defs><title>mybest_try_ver2</title><g id="a3b5649b-2d4f-43f0-b0aa-e081d0b5af83" data-name="Layer 2"><g id="b39bd1b1-d5fb-403c-ba16-8fac2e8afa04" data-name="LOGO"><g id="f9579e3d-0744-42c1-bf4a-db87ae1cfd49" data-name="BLUEDOGTRAINING"><path class="c48a5194-b3ad-4b99-a084-7535c1c21899" d="M0,316.58V245.13H23.41q12.61,0,19.68,4.93t7.07,14.65a15.17,15.17,0,0,1-10,14.62q6.67,1.23,10.06,5.79a17.38,17.38,0,0,1,3.39,10.65q0,10.26-6.77,15.53t-19.19,5.28Zm14.33-41.52H23.9q5.74,0,8.83-2.36a8.1,8.1,0,0,0,3.09-6.87q0-5-3.12-7.31t-9.3-2.36H14.33Zm0,9.91v20.61h13.3q5.69,0,8.69-2.48t3-7.34q0-5.2-2.94-8T27.48,285Z"/><path class="c48a5194-b3ad-4b99-a084-7535c1c21899" d="M78.37,305.59h32v11H64V245.13H78.37Z"/><path class="c48a5194-b3ad-4b99-a084-7535c1c21899" d="M175.33,245.13V291.9q0,12.07-8,18.89t-20.76,6.82q-12.71,0-20.64-6.82T118,291.9V245.13H132.4V291.9q0,7.17,3.83,10.94t10.35,3.78q6.62,0,10.5-3.78T161,291.9V245.13Z"/><path class="c48a5194-b3ad-4b99-a084-7535c1c21899" d="M228.58,285.17h-26.5v20.41h31.5v11H187.75V245.13h45.73v11H202.08v18h26.5Z"/><path class="c48a5194-b3ad-4b99-a084-7535c1c21899" d="M245.21,316.07V244.62h22.48q14,0,22.5,8.61t8.51,22.25v9.77q0,13.69-8.51,22.25t-22.5,8.56Zm9.67-63.84.2,56.8,12.6-.51q9.91,0,15.63-6.53T289,285.25v-9.86q0-10.11-5.72-16.64t-15.63-6.53Z"/><path class="c48a5194-b3ad-4b99-a084-7535c1c21899" d="M367.84,286.72q0,13.1-8.12,21.74t-21.08,8.64q-12.51,0-20.34-8.64t-7.83-21.74V274q0-13.05,7.83-21.74t20.34-8.69q13,0,21.08,8.66T367.84,274Zm-9.67-12.81q0-9.81-5.3-16.1t-14.23-6.28a16.37,16.37,0,0,0-13.47,6.28q-5,6.28-5,16.1v12.81q0,9.91,5,16.19a16.37,16.37,0,0,0,13.47,6.28c7.68,0,9.59-.72,14.25-6.26q5.27-6.26,5.28-16.22Z"/><path class="c48a5194-b3ad-4b99-a084-7535c1c21899" d="M433.15,306.45q-2.55,4-8.86,7.31t-16.37,3.34q-12.37,0-20.46-8.19t-8.1-21.2V273q0-13,7.8-21.2t20.12-8.19q11.93,0,18.84,6.35a20.4,20.4,0,0,1,6.72,16.17l-.1.29h-9.27a15,15,0,0,0-4.22-10.87q-4.22-4.34-12-4.34a16.2,16.2,0,0,0-13.2,6.13q-5,6.13-5,15.56v14.82q0,9.52,5.3,15.68a18,18,0,0,0,13.75,6.67A23.35,23.35,0,0,0,418,307.9a14.44,14.44,0,0,0,5.52-3.9V287.9H407.29v-7.56h25.86Z"/><path class="c48a5194-b3ad-4b99-a084-7535c1c21899" d="M498.08,256.17H477.67v60.41H463.34V256.17H443.22v-11h54.86Z"/><path class="c48a5194-b3ad-4b99-a084-7535c1c21899" d="M520.26,288v28.56H505.94V245.13h24.73q12.22,0,19.11,5.57t6.89,15.53a15.67,15.67,0,0,1-2.92,9.5,20.33,20.33,0,0,1-8.51,6.45q6.33,1.86,9.1,6.23a19.77,19.77,0,0,1,2.77,10.8v5.25a26,26,0,0,0,.81,6.26,8.61,8.61,0,0,0,2.77,4.83v1H545.93a7.93,7.93,0,0,1-2.53-5.2,45.73,45.73,0,0,1-.56-7v-5.05q0-5.35-2.92-8.32t-8.27-3Zm0-11h10.16q6,0,9-2.55t2.94-7.56a10.4,10.4,0,0,0-3-7.8q-3-2.89-8.71-2.9h-10.4Z"/><path class="c48a5194-b3ad-4b99-a084-7535c1c21899" d="M607.22,301.17H584.06l-4.81,15.41h-15l24.09-71.45H603l24,71.45h-15Zm-19.63-11.24h16.15l-7.9-25.17h-.29Z"/><path class="c48a5194-b3ad-4b99-a084-7535c1c21899" d="M649.23,316.58H634.9V245.13h14.33Z"/><path class="c48a5194-b3ad-4b99-a084-7535c1c21899" d="M721.17,316.58H706.84L678,268.39l-.29,0v48.14H663.41V245.13h14.33l28.81,48.14.29,0V245.13h14.33Z"/><path class="c48a5194-b3ad-4b99-a084-7535c1c21899" d="M749.63,315.87H735.3V244.42h14.33Z"/><path class="c48a5194-b3ad-4b99-a084-7535c1c21899" d="M821.57,315.87H807.24l-28.81-48.19-.29,0v48.14H763.81V244.42h14.33l28.81,48.14.29,0V244.42h14.33Z"/><path class="c48a5194-b3ad-4b99-a084-7535c1c21899" d="M889.28,306.3a27.14,27.14,0,0,1-10,7.58q-6.63,3.21-17.08,3.21-13,0-21.2-8.15T832.8,287.8V272.89q0-13,8-21.13t20.56-8.17q13.1,0,20.07,6.21t6.72,16.56l-.1.29H874.56q0-5.69-3.29-8.86t-9.57-3.17a12.86,12.86,0,0,0-10.6,5.08q-4,5.08-4,13.08v15q0,8.1,4.12,13.2a13.46,13.46,0,0,0,11,5.1,25.39,25.39,0,0,0,8.07-1,12.31,12.31,0,0,0,4.59-2.6V288.64H861.16v-9.91h28.12Z"/></g><g id="90ad57c8-427f-4086-b66b-4ad932311351" data-name="WHITE BG"><rect class="c48a5194-b3ad-4b99-a084-7535c1c21899" x="340.03" y="10" width="210" height="210"/><rect class="c48a5194-b3ad-4b99-a084-7535c1c21899" x="670.03" y="10" width="210" height="210"/><rect class="c48a5194-b3ad-4b99-a084-7535c1c21899" x="10.05" y="10" width="210" height="210"/></g><g id="a56b594d-ca8d-49fe-bfdb-4a120bda65df" data-name="HEADS"><g class="f28a7e3f-7081-46ce-a65a-b81b5ef498b7"><polygon class="e431ef4e-0658-40e0-9b8e-02fc8fb27dff" points="378.95 46.05 364.89 38.24 360.99 34.55 356.07 16.59 356.07 7.81 380.28 9.44 399.53 17.98 416.86 12.73 428.95 27.79 444.08 23.38 456.99 23.3 468.84 30.25 480.61 46.05 505.95 46.43 515.75 59.3 530.51 58.76 559.41 82.37 542.84 94.62 517.08 93.25 522.17 115.3 522.83 156.54 514.15 184.01 494.62 209.34 449.71 228.42 419.57 227.87 398.11 211.31 378.26 202.85 363.48 167.06 366.53 106.82 383.3 56.98 376.71 34 378.95 46.05"/><polygon class="4d1c82a2-85e7-435f-a2ec-c6dbe3af6775" points="380.75 26.39 386.03 33.33 385.44 38.29 389 49.37 389.06 54.34 381.02 75.68 370.32 122.57 377.73 161.32 385.99 162.06 498.85 174.21 509.19 158.97 514.82 132.84 510.82 87.8 512.94 81.58 524.95 73.22 541.66 73.69 516.47 87.78 521.75 114.16 522.78 155.6 511.06 184.48 493.38 207.89 455.83 231.48 420.82 228.24 397.81 211.11 378.03 202.65 363.49 166.04 365.23 106.89 383.61 54.65 381.47 47.77 362.98 35.5 362.98 35.5 370.97 35.32 372.22 32.32 372.61 19.37 380.75 26.39"/><path class="4d1c82a2-85e7-435f-a2ec-c6dbe3af6775" d="M398.6,37.55l-6,6.58,7.5,6.83-2.14,18.69s6.75,11.73,7.19,11.75,12.66-1.84,12.66-1.84l14.88-5.88L432.41,85l2.94,11.25,8.89,4.58,21-2.49,3.22-15,2.07.61,7.52,9.88L486.77,96l5.87-3.64,9.13-9.41,6.77.36.3-2.34-4.57-9-26.52.48-5.8-4-6,1.37.66,4-1.6,7.63L437,80.28,435.4,64.92,417.29,42.3Z"/><polyline class="23e505c1-7b7e-4ce7-83dc-f138b922322e" points="476.7 218.26 493.55 195.54 496.24 185.31 501.98 149.52 492.2 130.49 468.19 116.46 423.29 119 396.68 129.49 387.64 156.55 388.63 174.03 392.61 194.21 398.91 210.18 418.55 226.48 451.62 228.96"/><polygon class="23e505c1-7b7e-4ce7-83dc-f138b922322e" points="465.51 68.88 466.65 73.75 458.48 77.91 437.19 78.75 442.04 65.56 456.67 65.17 465.51 68.88"/><polygon class="c48a5194-b3ad-4b99-a084-7535c1c21899" points="406.44 40.3 399.82 53.28 402.12 66.51 416.79 69.46 425.39 62.44 419.09 44.54 406.44 40.3"/><polygon class="c48a5194-b3ad-4b99-a084-7535c1c21899" points="478.25 76.14 486.81 89.01 497.51 88.4 496.5 70.47 481.53 72.33 478.25 76.14"/><polygon class="c48a5194-b3ad-4b99-a084-7535c1c21899" points="405.11 111.72 412.52 99.15 415.67 112.17 422.37 102.66 426.82 115.9 405.47 118.12 405.11 111.72"/><polygon class="c48a5194-b3ad-4b99-a084-7535c1c21899" points="483.31 116.91 487.54 109.56 493.07 116.36 497.84 101.88 499.63 126 483.31 116.91"/><polygon class="c48a5194-b3ad-4b99-a084-7535c1c21899" points="351.98 93.28 366.84 98.1 365.13 110.27 351.98 93.28"/><path class="c48a5194-b3ad-4b99-a084-7535c1c21899" d="M361.21,141.07l-25.05,3.34L352.7,154.9l7,42.11-13.32,21.06,19-2.38,14.9,25s-.24,31.79.18,31.47,16.74-14.44,16.74-14.44l34,13,5.61,22.17,10.26-29,23.8-7.58L488.6,244l16.49,22.28-4.46-48.06,13.6-10.92,24.62-.81-18-21.33L489,217.71l-46.92,16.87L410.68,223.3l-11.45-12.7-10.57.31-12.6-12.49L363.2,161Z"/><path d="M501.75,105.57l-6.12-8.14-3,15.84-5.33-5.79-4.33,8.08-17.16-7.08-36.5,4.89-6.67-14-6.87,9.31L415.34,90,404,105l-1.94,11.86-2.14.56-10,11.66-4.36,26.8.44,6.19,2.29,15.2L390.56,156l9.23-25.33,24.76-8.58,44-2.49,22.71,12.86,8.56,16.71-3.62,36.11,10.53-44.77L503.35,134ZM413.1,115.8l-5.86.33-.12-2.06,5.17-12.59Zm4-1.1-.06-1.08,5-8.66,2.7,9.31Zm67.64,1.19,2.7-5.16,3.44,8Zm14,7.91-1.5-3.4-2.83-1.91,3.17-15.08Z"/><path d="M441.42,128s-14.38,4.87-15.25,4.78L440,134.44l11.16-.19,12.53-4.19-10.87-2.43Z"/><polygon points="525.47 69.7 512.46 73.05 512.94 81.58 525.17 74.62 541.66 73.69 525.47 69.7"/><path d="M419.51,71.33l6.82-7.71,7.53,4.87L430.6,82.75l9.68,12.08,24.84.63,5.35-13.21-3.82-8.49-8.82,3.11-10-4.51-10,5.64,5.49-10.61,13.45-.76,7.67,2.32,1-.06-5.63-7.23-12.4-1.19-3.57,2.23-4,.28-8.56-2.62-6.12-13-7.56-10.85-9.61-5.84-9.48,6.92,5.52,2.59L400.88,45,397.7,52.4l.25,17.25,8.53,4.6ZM401.22,53.8l5.62-12.18,10.06,4.66,7.11,16-8.63,5.17-3.25.18-9.4-2.7Z"/><polygon points="420 60.79 418.34 56.31 414.32 58.39 412.64 58.48 412.58 57.51 414.06 53.72 413.73 47.98 408.8 51.19 409.36 61.17 415.13 65.09 420 60.79"/><path d="M491.27,62.64l-10.89,7.58L471,68.14l15.64,25.23L500.42,91l2.66-15.82,5.77,5.77.77-14.7-11-6.71ZM480.86,77.45l.75-2.07,5.13-.29.58,4.54-4.65.53ZM496.07,86l-9.55.54-1-2.55L490,82.88l1.65-5.5-1.48-3,5.14-1.49Z"/><path d="M568.18,80.93l-9.39-7L528.64,51.25l-13.27,3.94-2-11.79-10.4-7-21.31,5.41,8.11-15.69-16.88,4.29,3.91-13-13.57,8.89-.84-14.9L451,22.26,446.78,7,443.5,18.33,442.18,18,435.7,6l.78,13.88-7,2.71L416.84,8.66l-17.3,0-2.11,3.55-2.17-2.61L355,1.36h0L350.5,8.8l9.23,28.79L372.2,48.36l6.24,2.15,1.93,7.84L365.64,94.21,344.8,87.56,353,105.7l9.29,6.44L357,137l-31.84,4.63,6.66,6.15,19,9.48L357,196.11l-20,27.57,25.86-4.51,14.65,24.31,0,35.25L395,261.32l34,11.79,7.39,26.79L449.27,267l21.09-5.44,19.29-13.6,16.71,24.3L504.26,229l8.75-8.76,5-8.44,27.58-1-18.38-22.9,1.5-10.1L530.32,155l11-10.3-12.49-5.39L527.09,117l-5.9-20.34L544,99.13ZM353.47,94.57l11.22,4.16L363.31,107Zm96.08,164.54-.73-9.75-11.54,36.56-3.68-34.29-4.41,12.54-28.84-9.69,3.14-15.74-7.06-7.44,2.71,13.34-17.06,21.53,2.1-22.53L390,229.39l-8.51,7.33-13.64-22,4.35-5.79-1.95-7.51L366.84,210,348.6,216.5l16.56-20.85-4.24-1.83-6-41.22-14.43-6.91,15.77-2.09,13,53.24,14.18,18,15.36.22,19.11,20.57,30.77,11.21,7.89,1,3.93,6.09Zm36.34-27.62,7.87-7.08,2.06,2.5L502.17,257ZM537,205.43,520.68,204,519,202.31l3.47-9.88ZM517.67,88.9l-5.17-4.82,7.86,31.33-.19,41L508.9,184.16,492,206.45l2.89-12.35L474.79,216,451,226.5l-30.62-.88-16.7-14.4-11.08-17,.72,12.69-13.07-6-14.48-34.76,2-59.2,18.5-52L386,49.38,382.1,38l-1.36-11.58-8.14-7,2.76,10,.67,9.1,1.46,6-14-10.66-4.08-21,24.51,1.76,8,8.45,1.27,12.61,4.83-12.68L417,15.18l11.57,18,11.86,11.63L432.6,31.46l-.44-2,7.47,1.21,4.6-5.27L448,30.92l8.26-6,3.66,8.93,6.93-2.57-.68,5.37,10.3,5.19-8.15,8-10.62,2.77,12,3.13L486,48.25l19.34-.44,7.95,9.67L514.41,62l15.54-2.29,26.65,23-16.7,8.78Z"/></g><g class="5fedb2bf-33a6-4af6-8abf-c50be807f09a"><polygon class="e431ef4e-0658-40e0-9b8e-02fc8fb27dff" points="137.14 46.05 123.08 38.24 119.17 34.55 114.26 16.59 114.26 7.81 138.47 9.44 157.72 17.98 175.04 12.73 187.14 27.79 202.27 23.38 215.18 23.3 227.03 30.25 238.8 46.05 264.14 46.43 273.94 59.3 288.7 58.76 317.6 82.37 301.03 94.62 275.27 93.25 280.36 115.3 281.02 156.54 272.34 184.01 252.81 209.34 207.9 228.42 177.76 227.87 156.3 211.31 136.45 202.85 121.66 167.06 124.72 106.82 141.49 56.98 134.9 34 137.14 46.05"/><polygon class="4d1c82a2-85e7-435f-a2ec-c6dbe3af6775" points="138.94 26.39 144.22 33.33 143.63 38.29 147.19 49.37 147.25 54.34 139.21 75.68 128.51 122.57 135.92 161.32 144.18 162.06 257.04 174.21 267.37 158.97 273.01 132.84 269.01 87.8 271.13 81.58 283.13 73.22 299.85 73.69 274.66 87.78 279.94 114.16 280.97 155.6 269.25 184.48 251.57 207.89 214.02 231.48 179.01 228.24 156 211.11 136.22 202.65 121.68 166.04 123.42 106.89 141.79 54.65 139.66 47.77 121.16 35.5 121.16 35.5 129.16 35.32 130.41 32.32 130.8 19.37 138.94 26.39"/><path class="4d1c82a2-85e7-435f-a2ec-c6dbe3af6775" d="M156.79,37.55l-6,6.58,7.5,6.83-2.14,18.69s6.75,11.73,7.19,11.75S176,79.55,176,79.55l14.88-5.88L190.6,85l2.94,11.25,8.89,4.58,21-2.49,3.22-15,2.07.61,7.52,9.88L245,96l5.87-3.64L260,82.92l6.77.36.3-2.34-4.57-9-26.52.48-5.8-4-6,1.37.66,4-1.6,7.63-28.06-1.1-1.59-15.36L175.48,42.3Z"/><polyline class="23e505c1-7b7e-4ce7-83dc-f138b922322e" points="234.89 218.26 251.74 195.54 254.43 185.31 260.17 149.52 250.39 130.49 226.38 116.46 181.48 119 154.87 129.49 145.83 156.55 146.82 174.03 150.8 194.21 157.1 210.18 176.74 226.48 209.81 228.96"/><polygon class="23e505c1-7b7e-4ce7-83dc-f138b922322e" points="223.7 68.88 224.84 73.75 216.66 77.91 195.38 78.75 200.23 65.56 214.86 65.17 223.7 68.88"/><polygon class="c48a5194-b3ad-4b99-a084-7535c1c21899" points="164.63 40.3 158 53.28 160.31 66.51 174.98 69.46 183.58 62.44 177.28 44.54 164.63 40.3"/><polygon class="c48a5194-b3ad-4b99-a084-7535c1c21899" points="236.44 76.14 245 89.01 255.7 88.4 254.69 70.47 239.72 72.33 236.44 76.14"/><polygon class="c48a5194-b3ad-4b99-a084-7535c1c21899" points="163.3 111.72 170.71 99.15 173.86 112.17 180.56 102.66 185 115.9 163.66 118.12 163.3 111.72"/><polygon class="c48a5194-b3ad-4b99-a084-7535c1c21899" points="241.5 116.91 245.73 109.56 251.26 116.36 256.03 101.88 257.82 126 241.5 116.91"/><polygon class="c48a5194-b3ad-4b99-a084-7535c1c21899" points="110.17 93.28 125.03 98.1 123.32 110.27 110.17 93.28"/><path class="c48a5194-b3ad-4b99-a084-7535c1c21899" d="M119.4,141.07l-25.05,3.34,16.55,10.49,7,42.11L104.6,218.07l19-2.38,14.9,25s-.24,31.79.18,31.47,16.74-14.44,16.74-14.44l34,13L195,292.91l10.26-29,23.8-7.58L246.79,244l16.49,22.28-4.46-48.06,13.6-10.92,24.62-.81-18-21.33-31.82,32.55-46.92,16.87L168.87,223.3l-11.45-12.7-10.57.31-12.6-12.49L121.39,161Z"/><path d="M259.93,105.57l-6.12-8.14-3,15.84-5.33-5.79-4.33,8.08L224,108.47l-36.5,4.89-6.67-14-6.87,9.31L173.53,90l-11.34,15-1.94,11.86-2.14.56-10,11.66-4.36,26.8.44,6.19,2.29,15.2L148.75,156,158,130.7l24.76-8.58,44-2.49,22.71,12.86L258,149.2l-3.62,36.11L265,140.54,261.54,134ZM171.29,115.8l-5.86.33-.12-2.06,5.16-12.59Zm4-1.1-.06-1.08,5-8.66,2.7,9.31Zm67.64,1.19,2.7-5.16,3.44,8Zm14,7.91-1.5-3.4-2.83-1.91,3.17-15.08Z"/><path d="M199.61,128s-14.38,4.87-15.25,4.78l13.88,1.68,11.16-.19,12.53-4.19-10.87-2.43Z"/><polygon points="283.66 69.7 270.65 73.05 271.13 81.58 283.36 74.62 299.85 73.69 283.66 69.7"/><path d="M177.7,71.33l6.82-7.71L192,68.49l-3.26,14.26,9.68,12.08,24.84.63,5.35-13.21-3.82-8.49L216,76.86l-10-4.51-10,5.64,5.49-10.61L215,66.62l7.67,2.32,1-.06-5.63-7.23-12.4-1.19-3.57,2.23-4,.28-8.56-2.62-6.12-13-7.56-10.85-9.61-5.84-9.48,6.92,5.52,2.59L159.06,45l-3.18,7.44.25,17.25,8.53,4.6ZM159.41,53.8,165,41.62l10.06,4.66,7.11,16-8.63,5.17-3.25.18-9.4-2.7Z"/><polygon points="178.19 60.79 176.53 56.31 172.51 58.39 170.83 58.48 170.77 57.51 172.25 53.72 171.92 47.98 166.99 51.19 167.55 61.17 173.32 65.09 178.19 60.79"/><path d="M249.46,62.64l-10.89,7.58-9.4-2.08,15.64,25.23L258.61,91l2.66-15.82L267,80.94l.77-14.7-11-6.71ZM239.05,77.45l.75-2.07,5.13-.29.58,4.54-4.65.53ZM254.26,86l-9.55.54-1-2.55,4.51-1.09,1.65-5.5-1.48-3,5.14-1.49Z"/><path d="M326.37,80.93l-9.39-7L286.83,51.25l-13.27,3.94-2-11.79-10.4-7-21.31,5.41L248,26.16,231.1,30.45l3.91-13-13.57,8.89-.84-14.9-11.43,10.8L205,7l-3.28,11.35L200.37,18,193.89,6l.78,13.88-7,2.71L175,8.66l-17.3,0-2.11,3.55-2.17-2.61L113.22,1.36h0L108.68,8.8l9.23,28.79,12.47,10.77,6.24,2.15,1.93,7.84L123.83,94.21,103,87.56l8.21,18.14,9.29,6.44L115.14,137l-31.84,4.63L90,147.81l19,9.48,6.22,38.82-20,27.57,25.86-4.51,14.65,24.31,0,35.25,17.41-17.41,34,11.79,7.39,26.79L207.46,267l21.09-5.44,19.29-13.6,16.71,24.3L262.44,229l8.75-8.76,5-8.44,27.58-1-18.38-22.9,1.5-10.1L288.51,155l11-10.3L287,139.3,285.28,117l-5.9-20.34,22.77,2.49ZM111.66,94.57l11.22,4.16L121.5,107Zm96.08,164.54-.73-9.75-11.54,36.56-3.68-34.29-4.41,12.54-28.84-9.69,3.14-15.74-7.06-7.44,2.71,13.34-17.06,21.53,2.1-22.53,5.83-14.26-8.51,7.33-13.64-22,4.35-5.79-1.95-7.51L125,210l-18.24,6.47,16.56-20.85-4.24-1.83-6-41.22-14.43-6.91,15.77-2.09,13,53.24,14.18,18,15.36.22,19.11,20.57,30.77,11.21,7.89,1,3.93,6.09Zm36.34-27.62,7.87-7.08,2.06,2.5L260.36,257Zm51.08-26.06L278.87,204l-1.72-1.64,3.47-9.88ZM275.86,88.9l-5.17-4.82,7.86,31.33-.19,41-11.27,27.73-16.91,22.28,2.89-12.35L233,216,209.2,226.5l-30.62-.88-16.7-14.4-11.08-17,.72,12.69-13.07-6L124,166.13l2-59.2,18.5-52-.29-5.59L140.29,38l-1.36-11.58-8.14-7,2.76,10,.67,9.1,1.46,6-14-10.66-4.08-21,24.51,1.76,8,8.45,1.27,12.61,4.83-12.68,18.93-7.68,11.57,18,11.86,11.63-7.83-13.38-.44-2,7.47,1.21,4.6-5.27,3.79,5.55,8.26-6,3.66,8.93,6.93-2.57-.68,5.37,10.3,5.19-8.15,8-10.62,2.77,12,3.13,16.23-7.45,19.34-.44,7.95,9.67L272.6,62l15.54-2.29,26.65,23-16.7,8.78Z"/></g><g class="04efd3f9-9577-419c-98e4-d8fb48a42f91"><polygon class="e431ef4e-0658-40e0-9b8e-02fc8fb27dff" points="613.64 46.05 599.58 38.24 595.67 34.55 590.76 16.59 590.76 7.81 614.97 9.44 634.22 17.98 651.54 12.73 663.64 27.79 678.77 23.38 691.68 23.3 703.53 30.25 715.3 46.05 740.64 46.43 750.44 59.3 765.2 58.76 794.1 82.37 777.53 94.62 751.77 93.25 756.86 115.3 757.52 156.54 748.84 184.01 729.31 209.34 684.4 228.42 654.26 227.87 632.8 211.31 612.95 202.85 598.16 167.06 601.22 106.82 617.99 56.98 611.4 34 613.64 46.05"/><polygon class="4d1c82a2-85e7-435f-a2ec-c6dbe3af6775" points="615.44 26.39 620.72 33.33 620.13 38.29 623.69 49.37 623.75 54.34 615.71 75.68 605.01 122.57 612.42 161.32 620.68 162.06 733.54 174.21 743.87 158.97 749.51 132.84 745.51 87.8 747.63 81.58 759.63 73.22 776.35 73.69 751.16 87.78 756.43 114.16 757.47 155.6 745.75 184.48 728.07 207.89 690.52 231.48 655.51 228.24 632.5 211.11 612.72 202.65 598.18 166.04 599.92 106.89 618.29 54.65 616.16 47.77 597.66 35.5 597.66 35.5 605.66 35.32 606.91 32.32 607.3 19.37 615.44 26.39"/><path class="4d1c82a2-85e7-435f-a2ec-c6dbe3af6775" d="M633.29,37.55l-6,6.58,7.5,6.83-2.14,18.69s6.75,11.73,7.19,11.75,12.66-1.84,12.66-1.84l14.88-5.88L667.1,85,670,96.26l8.89,4.58,21-2.49,3.22-15,2.07.61,7.52,9.88L721.46,96l5.87-3.64,9.13-9.41,6.77.36.3-2.34-4.57-9-26.52.48-5.8-4-6,1.37.66,4-1.6,7.63-28.06-1.1-1.59-15.36L652,42.3Z"/><polyline class="23e505c1-7b7e-4ce7-83dc-f138b922322e" points="711.39 218.26 728.24 195.54 730.93 185.31 736.67 149.52 726.89 130.49 702.88 116.46 657.98 119 631.37 129.49 622.33 156.55 623.32 174.03 627.3 194.21 633.6 210.18 653.24 226.48 686.31 228.96"/><polygon class="23e505c1-7b7e-4ce7-83dc-f138b922322e" points="700.2 68.88 701.34 73.75 693.16 77.91 671.88 78.75 676.73 65.56 691.36 65.17 700.2 68.88"/><polygon class="c48a5194-b3ad-4b99-a084-7535c1c21899" points="641.13 40.3 634.5 53.28 636.81 66.51 651.48 69.46 660.08 62.44 653.78 44.54 641.13 40.3"/><polygon class="c48a5194-b3ad-4b99-a084-7535c1c21899" points="712.94 76.14 721.5 89.01 732.2 88.4 731.19 70.47 716.22 72.33 712.94 76.14"/><polygon class="c48a5194-b3ad-4b99-a084-7535c1c21899" points="639.8 111.72 647.21 99.15 650.36 112.17 657.06 102.66 661.5 115.9 640.16 118.12 639.8 111.72"/><polygon class="c48a5194-b3ad-4b99-a084-7535c1c21899" points="718 116.91 722.23 109.56 727.76 116.36 732.53 101.88 734.32 126 718 116.91"/><polygon class="c48a5194-b3ad-4b99-a084-7535c1c21899" points="586.67 93.28 601.53 98.1 599.82 110.27 586.67 93.28"/><path class="c48a5194-b3ad-4b99-a084-7535c1c21899" d="M595.9,141.07l-25.05,3.34,16.55,10.49,7,42.11L581.1,218.07l19-2.38,14.9,25s-.24,31.79.18,31.47,16.74-14.44,16.74-14.44l34,13,5.61,22.17,10.26-29,23.8-7.58L723.29,244l16.49,22.28-4.45-48.06,13.6-10.92,24.62-.81-18-21.33-31.82,32.55-46.92,16.87L645.37,223.3l-11.45-12.7-10.57.31-12.6-12.49L597.89,161Z"/><path d="M736.43,105.57l-6.12-8.14-3,15.84L722,107.48l-4.33,8.08-17.16-7.08L664,113.36l-6.67-14-6.87,9.31L650,90l-11.34,15-1.94,11.86-2.14.56-10,11.66-4.36,26.8.44,6.19,2.29,15.2L625.25,156l9.23-25.33,24.76-8.58,44-2.49L726,132.49l8.56,16.71-3.62,36.11,10.53-44.77L738,134ZM647.79,115.8l-5.86.33-.12-2.06L647,101.48Zm4-1.1-.06-1.08,5-8.66,2.7,9.31Zm67.64,1.19,2.7-5.16,3.44,8Zm14,7.91-1.5-3.4-2.83-1.91,3.17-15.08Z"/><path d="M676.11,128s-14.38,4.87-15.25,4.78l13.88,1.68,11.16-.19,12.53-4.19-10.87-2.43Z"/><polygon points="760.16 69.7 747.15 73.05 747.63 81.58 759.86 74.62 776.35 73.69 760.16 69.7"/><path d="M654.2,71.33,661,63.62l7.53,4.87-3.26,14.26L675,94.82l24.84.63,5.35-13.21-3.82-8.49-8.82,3.11-10-4.51-10,5.64,5.49-10.61,13.45-.76,7.67,2.32,1-.06-5.63-7.23-12.4-1.19-3.57,2.23-4,.28-8.56-2.62-6.12-13-7.56-10.85-9.61-5.84-9.48,6.92,5.52,2.59L635.56,45l-3.18,7.44.25,17.25,8.53,4.6ZM635.91,53.8l5.62-12.18,10.06,4.66,7.11,16-8.63,5.17-3.25.18-9.4-2.7Z"/><polygon points="654.69 60.79 653.03 56.31 649.01 58.39 647.33 58.48 647.27 57.51 648.75 53.72 648.42 47.98 643.49 51.19 644.05 61.17 649.82 65.09 654.69 60.79"/><path d="M726,62.64l-10.89,7.58-9.4-2.08,15.64,25.23L735.11,91l2.66-15.82,5.77,5.77.77-14.7-11-6.71ZM715.55,77.45l.75-2.07,5.13-.29.58,4.54-4.65.53ZM730.76,86l-9.55.54-1-2.55,4.51-1.09,1.65-5.5-1.48-3L730,72.86Z"/><path d="M802.87,80.93l-9.39-7L763.33,51.25l-13.27,3.94-2-11.79-10.4-7-21.31,5.41,8.11-15.69L707.6,30.45l3.91-13-13.57,8.89-.84-14.9-11.43,10.8L681.47,7l-3.28,11.35L676.87,18,670.39,6l.78,13.88-7,2.71L651.53,8.66l-17.3,0-2.11,3.55L630,9.58,589.72,1.36h0L585.18,8.8l9.23,28.79,12.47,10.77,6.24,2.15,1.93,7.84L600.33,94.21l-20.83-6.66,8.21,18.14,9.29,6.44L591.64,137l-31.84,4.63,6.66,6.15,19,9.48,6.22,38.82-20,27.57,25.86-4.51,14.65,24.31,0,35.25,17.41-17.41,34,11.79L671,299.9,684,267l21.09-5.44,19.29-13.6,16.71,24.3L738.94,229l8.75-8.76,5-8.44,27.58-1-18.38-22.9,1.5-10.1L765,155l11-10.3-12.49-5.39L761.78,117l-5.9-20.34,22.77,2.49ZM588.16,94.57l11.22,4.16L598,107Zm96.08,164.54-.73-9.75L672,285.92l-3.68-34.29-4.41,12.54-28.84-9.69,3.14-15.74-7.06-7.44,2.71,13.34-17.06,21.53,2.1-22.53,5.83-14.26-8.51,7.33-13.64-22,4.35-5.79L605,201.46,601.53,210l-18.24,6.47,16.56-20.85-4.24-1.83-6-41.22-14.43-6.91,15.77-2.09,13,53.24,14.18,18,15.36.22,19.11,20.57,30.77,11.21,7.89,1,3.93,6.09Zm36.34-27.62,7.87-7.08,2.06,2.5L736.86,257Zm51.08-26.06L755.37,204l-1.72-1.64,3.47-9.88ZM752.36,88.9l-5.17-4.82,7.86,31.33-.19,41-11.27,27.73-16.91,22.28,2.89-12.35L709.48,216,685.7,226.5l-30.62-.88-16.7-14.4-11.08-17L628,206.9l-13.07-6-14.48-34.76,2-59.2L621,55l-.29-5.59L616.79,38l-1.36-11.58-8.14-7,2.76,10,.67,9.1,1.46,6-14-10.66-4.08-21,24.51,1.76,8,8.45,1.27,12.61,4.83-12.68,18.93-7.68,11.57,18,11.86,11.63-7.83-13.38-.44-2,7.47,1.21,4.6-5.27,3.79,5.55,8.26-6,3.66,8.93,6.93-2.57-.68,5.37,10.3,5.19-8.15,8-10.62,2.77,12,3.13,16.23-7.45L740,47.81,748,57.48,749.1,62l15.54-2.29,26.65,23-16.7,8.78Z"/></g></g><path id="1f0e6199-fe3e-4a4d-8060-c334346af1a7" data-name="BLUE BOXES" class="4d1c82a2-85e7-435f-a2ec-c6dbe3af6775" d="M660,0V100H560V0H330V100H230V0H0V230H230V130H330V230H560V130H660V230H890V0ZM220,220H10V10H220Zm330,0H340V10H550Zm330,0H670V10H880Z"/><path id="fbff4e36-e79a-4eac-89c8-f905586d4804" data-name="BLACK BOXES" d="M670,10V110H550V10H340V110H220V10H10V220H220V120H340V220H550V120H670V220H880V10ZM210,210H20V20H210Zm330,0H350V20H540Zm330,0H680V20H870Z"/></g></g></svg>